<?xml version="1.0" encoding="utf-8"?>
<!DOCTYPE svg PUBLIC "-//W3C//DTD SVG 1.0//EN" "http://www.w3.org/TR/2001/REC-SVG-20010904/DTD/svg10.dtd">
<svg xmlns="http://www.w3.org/2000/svg" version="1.0" width="1220" height="446">
<rect x="10" y="10" width="1200" height="96" style="fill:rgb(255,255,255);stroke-width:1;stroke:rgb(0,0,0);"/>
<rect x="1069" y="10" width="127" height="96" style="fill:rgb(100,100,100);stroke-width:1;stroke:rgb(0,0,0);"/>
<text x="1069" y="20" style="fill:black;font-family:sans-serif;font-size:10px;">0</text>
<rect x="10" y="106" width="10" height="10" style="fill:rgb(100,100,100);stroke-width:1;stroke:rgb(0,0,0);"/>
<text x="20" y="116" style="fill:black;font-family:sans-serif;font-size:10px;">core 0: start time = 1052956, bus offset = 0, interval = 126689, bus width = 24</text>
<rect x="245" y="102" width="7" height="4" style="fill:rgb(100,200,100);stroke-width:1;stroke:rgb(0,0,0);"/>
<text x="245" y="112" style="fill:black;font-family:sans-serif;font-size:10px;">1</text>
<rect x="10" y="116" width="10" height="10" style="fill:rgb(100,200,100);stroke-width:1;stroke:rgb(0,0,0);"/>
<text x="20" y="126" style="fill:black;font-family:sans-serif;font-size:10px;">core 1: start time = 234229, bus offset = 23, interval = 7906, bus width = 1</text>
<rect x="201" y="102" width="26" height="4" style="fill:rgb(100,100,200);stroke-width:1;stroke:rgb(0,0,0);"/>
<text x="201" y="112" style="fill:black;font-family:sans-serif;font-size:10px;">2</text>
<rect x="10" y="126" width="10" height="10" style="fill:rgb(100,100,200);stroke-width:1;stroke:rgb(0,0,0);"/>
<text x="20" y="136" style="fill:black;font-family:sans-serif;font-size:10px;">core 2: start time = 190668, bus offset = 23, interval = 26597, bus width = 1</text>
<rect x="259" y="102" width="2" height="4" style="fill:rgb(100,200,200);stroke-width:1;stroke:rgb(0,0,0);"/>
<text x="259" y="112" style="fill:black;font-family:sans-serif;font-size:10px;">3</text>
<rect x="10" y="136" width="10" height="10" style="fill:rgb(100,200,200);stroke-width:1;stroke:rgb(0,0,0);"/>
<text x="20" y="146" style="fill:black;font-family:sans-serif;font-size:10px;">core 3: start time = 247985, bus offset = 23, interval = 2516, bus width = 1</text>
<rect x="10" y="30" width="351" height="12" style="fill:rgb(200,100,100);stroke-width:1;stroke:rgb(0,0,0);"/>
<text x="10" y="40" style="fill:black;font-family:sans-serif;font-size:10px;">4</text>
<rect x="10" y="146" width="10" height="10" style="fill:rgb(200,100,100);stroke-width:1;stroke:rgb(0,0,0);"/>
<text x="20" y="156" style="fill:black;font-family:sans-serif;font-size:10px;">core 4: start time = 0, bus offset = 5, interval = 349288, bus width = 3</text>
<rect x="392" y="14" width="232" height="92" style="fill:rgb(200,200,100);stroke-width:1;stroke:rgb(0,0,0);"/>
<text x="392" y="24" style="fill:black;font-family:sans-serif;font-size:10px;">5</text>
<rect x="10" y="156" width="10" height="10" style="fill:rgb(200,200,100);stroke-width:1;stroke:rgb(0,0,0);"/>
<text x="20" y="166" style="fill:black;font-family:sans-serif;font-size:10px;">core 5: start time = 380290, bus offset = 1, interval = 231478, bus width = 23</text>
<rect x="1209" y="10" width="0" height="84" style="fill:rgb(200,100,200);stroke-width:1;stroke:rgb(0,0,0);"/>
<text x="1209" y="20" style="fill:black;font-family:sans-serif;font-size:10px;">6</text>
<rect x="10" y="166" width="10" height="10" style="fill:rgb(200,100,200);stroke-width:1;stroke:rgb(0,0,0);"/>
<text x="20" y="176" style="fill:black;font-family:sans-serif;font-size:10px;">core 6: start time = 1192522, bus offset = 0, interval = 355, bus width = 21</text>
<rect x="253" y="102" width="5" height="4" style="fill:rgb(200,200,200);stroke-width:1;stroke:rgb(0,0,0);"/>
<text x="253" y="112" style="fill:black;font-family:sans-serif;font-size:10px;">7</text>
<rect x="10" y="176" width="10" height="10" style="fill:rgb(200,200,200);stroke-width:1;stroke:rgb(0,0,0);"/>
<text x="20" y="186" style="fill:black;font-family:sans-serif;font-size:10px;">core 7: start time = 242135, bus offset = 23, interval = 5850, bus width = 1</text>
<rect x="228" y="102" width="8" height="4" style="fill:rgb(100,100,100);stroke-width:1;stroke:rgb(0,0,0);"/>
<text x="228" y="112" style="fill:black;font-family:sans-serif;font-size:10px;">8</text>
<rect x="10" y="186" width="10" height="10" style="fill:rgb(100,100,100);stroke-width:1;stroke:rgb(0,0,0);"/>
<text x="20" y="196" style="fill:black;font-family:sans-serif;font-size:10px;">core 8: start time = 217265, bus offset = 23, interval = 8482, bus width = 1</text>
<rect x="1196" y="10" width="11" height="96" style="fill:rgb(100,200,100);stroke-width:1;stroke:rgb(0,0,0);"/>
<text x="1196" y="20" style="fill:black;font-family:sans-serif;font-size:10px;">9</text>
<rect x="10" y="196" width="10" height="10" style="fill:rgb(100,200,100);stroke-width:1;stroke:rgb(0,0,0);"/>
<text x="20" y="206" style="fill:black;font-family:sans-serif;font-size:10px;">core 9: start time = 1179645, bus offset = 0, interval = 11648, bus width = 24</text>
<rect x="370" y="14" width="21" height="28" style="fill:rgb(100,100,200);stroke-width:1;stroke:rgb(0,0,0);"/>
<text x="370" y="24" style="fill:black;font-family:sans-serif;font-size:10px;">10</text>
<rect x="10" y="206" width="10" height="10" style="fill:rgb(100,100,200);stroke-width:1;stroke:rgb(0,0,0);"/>
<text x="20" y="216" style="fill:black;font-family:sans-serif;font-size:10px;">core 10: start time = 358682, bus offset = 1, interval = 21608, bus width = 7</text>
<rect x="273" y="42" width="114" height="64" style="fill:rgb(100,200,200);stroke-width:1;stroke:rgb(0,0,0);"/>
<text x="273" y="52" style="fill:black;font-family:sans-serif;font-size:10px;">11</text>
<rect x="10" y="216" width="10" height="10" style="fill:rgb(100,200,200);stroke-width:1;stroke:rgb(0,0,0);"/>
<text x="20" y="226" style="fill:black;font-family:sans-serif;font-size:10px;">core 11: start time = 262278, bus offset = 8, interval = 114060, bus width = 16</text>
<rect x="751" y="14" width="85" height="92" style="fill:rgb(200,100,100);stroke-width:1;stroke:rgb(0,0,0);"/>
<text x="751" y="24" style="fill:black;font-family:sans-serif;font-size:10px;">12</text>
<rect x="10" y="226" width="10" height="10" style="fill:rgb(200,100,100);stroke-width:1;stroke:rgb(0,0,0);"/>
<text x="20" y="236" style="fill:black;font-family:sans-serif;font-size:10px;">core 12: start time = 737396, bus offset = 1, interval = 85214, bus width = 23</text>
<rect x="837" y="14" width="85" height="92" style="fill:rgb(200,200,100);stroke-width:1;stroke:rgb(0,0,0);"/>
<text x="837" y="24" style="fill:black;font-family:sans-serif;font-size:10px;">13</text>
<rect x="10" y="236" width="10" height="10" style="fill:rgb(200,200,100);stroke-width:1;stroke:rgb(0,0,0);"/>
<text x="20" y="246" style="fill:black;font-family:sans-serif;font-size:10px;">core 13: start time = 822610, bus offset = 1, interval = 85214, bus width = 23</text>
<rect x="361" y="34" width="6" height="8" style="fill:rgb(200,100,200);stroke-width:1;stroke:rgb(0,0,0);"/>
<text x="361" y="44" style="fill:black;font-family:sans-serif;font-size:10px;">14</text>
<rect x="10" y="246" width="10" height="10" style="fill:rgb(200,100,200);stroke-width:1;stroke:rgb(0,0,0);"/>
<text x="20" y="256" style="fill:black;font-family:sans-serif;font-size:10px;">core 14: start time = 349288, bus offset = 6, interval = 6641, bus width = 2</text>
<rect x="146" y="102" width="55" height="4" style="fill:rgb(200,200,200);stroke-width:1;stroke:rgb(0,0,0);"/>
<text x="146" y="112" style="fill:black;font-family:sans-serif;font-size:10px;">15</text>
<rect x="10" y="256" width="10" height="10" style="fill:rgb(200,200,200);stroke-width:1;stroke:rgb(0,0,0);"/>
<text x="20" y="266" style="fill:black;font-family:sans-serif;font-size:10px;">core 15: start time = 135956, bus offset = 23, interval = 54712, bus width = 1</text>
<rect x="10" y="14" width="360" height="16" style="fill:rgb(100,100,100);stroke-width:1;stroke:rgb(0,0,0);"/>
<text x="10" y="24" style="fill:black;font-family:sans-serif;font-size:10px;">16</text>
<rect x="10" y="266" width="10" height="10" style="fill:rgb(100,100,100);stroke-width:1;stroke:rgb(0,0,0);"/>
<text x="20" y="276" style="fill:black;font-family:sans-serif;font-size:10px;">core 16: start time = 0, bus offset = 1, interval = 358682, bus width = 4</text>
<rect x="391" y="46" width="0" height="32" style="fill:rgb(100,200,100);stroke-width:1;stroke:rgb(0,0,0);"/>
<text x="391" y="56" style="fill:black;font-family:sans-serif;font-size:10px;">17</text>
<rect x="10" y="276" width="10" height="10" style="fill:rgb(100,200,100);stroke-width:1;stroke:rgb(0,0,0);"/>
<text x="20" y="286" style="fill:black;font-family:sans-serif;font-size:10px;">core 17: start time = 379116, bus offset = 9, interval = 385, bus width = 8</text>
<rect x="10" y="10" width="1037" height="4" style="fill:rgb(100,100,200);stroke-width:1;stroke:rgb(0,0,0);"/>
<text x="10" y="20" style="fill:black;font-family:sans-serif;font-size:10px;">18</text>
<rect x="10" y="286" width="10" height="10" style="fill:rgb(100,100,200);stroke-width:1;stroke:rgb(0,0,0);"/>
<text x="20" y="296" style="fill:black;font-family:sans-serif;font-size:10px;">core 18: start time = 0, bus offset = 0, interval = 1031266, bus width = 1</text>
<rect x="10" y="42" width="217" height="60" style="fill:rgb(100,200,200);stroke-width:1;stroke:rgb(0,0,0);"/>
<text x="10" y="52" style="fill:black;font-family:sans-serif;font-size:10px;">19</text>
<rect x="10" y="296" width="10" height="10" style="fill:rgb(100,200,200);stroke-width:1;stroke:rgb(0,0,0);"/>
<text x="20" y="306" style="fill:black;font-family:sans-serif;font-size:10px;">core 19: start time = 0, bus offset = 8, interval = 216005, bus width = 15</text>
<rect x="391" y="78" width="0" height="28" style="fill:rgb(200,100,100);stroke-width:1;stroke:rgb(0,0,0);"/>
<text x="391" y="88" style="fill:black;font-family:sans-serif;font-size:10px;">20</text>
<rect x="10" y="306" width="10" height="10" style="fill:rgb(200,100,100);stroke-width:1;stroke:rgb(0,0,0);"/>
<text x="20" y="316" style="fill:black;font-family:sans-serif;font-size:10px;">core 20: start time = 379116, bus offset = 17, interval = 427, bus width = 7</text>
<rect x="392" y="66" width="0" height="40" style="fill:rgb(200,200,100);stroke-width:1;stroke:rgb(0,0,0);"/>
<text x="392" y="76" style="fill:black;font-family:sans-serif;font-size:10px;">21</text>
<rect x="10" y="316" width="10" height="10" style="fill:rgb(200,200,100);stroke-width:1;stroke:rgb(0,0,0);"/>
<text x="20" y="326" style="fill:black;font-family:sans-serif;font-size:10px;">core 21: start time = 379930, bus offset = 14, interval = 214, bus width = 10</text>
<rect x="923" y="14" width="81" height="92" style="fill:rgb(200,100,200);stroke-width:1;stroke:rgb(0,0,0);"/>
<text x="923" y="24" style="fill:black;font-family:sans-serif;font-size:10px;">22</text>
<rect x="10" y="326" width="10" height="10" style="fill:rgb(200,100,200);stroke-width:1;stroke:rgb(0,0,0);"/>
<text x="20" y="336" style="fill:black;font-family:sans-serif;font-size:10px;">core 22: start time = 907824, bus offset = 1, interval = 80604, bus width = 23</text>
<rect x="91" y="102" width="55" height="4" style="fill:rgb(200,200,200);stroke-width:1;stroke:rgb(0,0,0);"/>
<text x="91" y="112" style="fill:black;font-family:sans-serif;font-size:10px;">23</text>
<rect x="10" y="336" width="10" height="10" style="fill:rgb(200,200,200);stroke-width:1;stroke:rgb(0,0,0);"/>
<text x="20" y="346" style="fill:black;font-family:sans-serif;font-size:10px;">core 23: start time = 80656, bus offset = 23, interval = 55300, bus width = 1</text>
<rect x="10" y="102" width="81" height="4" style="fill:rgb(100,100,100);stroke-width:1;stroke:rgb(0,0,0);"/>
<text x="10" y="112" style="fill:black;font-family:sans-serif;font-size:10px;">24</text>
<rect x="10" y="346" width="10" height="10" style="fill:rgb(100,100,100);stroke-width:1;stroke:rgb(0,0,0);"/>
<text x="20" y="356" style="fill:black;font-family:sans-serif;font-size:10px;">core 24: start time = 0, bus offset = 23, interval = 80656, bus width = 1</text>
<rect x="391" y="54" width="0" height="52" style="fill:rgb(100,200,100);stroke-width:1;stroke:rgb(0,0,0);"/>
<text x="391" y="64" style="fill:black;font-family:sans-serif;font-size:10px;">25</text>
<rect x="10" y="356" width="10" height="10" style="fill:rgb(100,200,100);stroke-width:1;stroke:rgb(0,0,0);"/>
<text x="20" y="366" style="fill:black;font-family:sans-serif;font-size:10px;">core 25: start time = 379543, bus offset = 11, interval = 387, bus width = 13</text>
<rect x="625" y="14" width="126" height="92" style="fill:rgb(100,100,200);stroke-width:1;stroke:rgb(0,0,0);"/>
<text x="625" y="24" style="fill:black;font-family:sans-serif;font-size:10px;">26</text>
<rect x="10" y="366" width="10" height="10" style="fill:rgb(100,100,200);stroke-width:1;stroke:rgb(0,0,0);"/>
<text x="20" y="376" style="fill:black;font-family:sans-serif;font-size:10px;">core 26: start time = 611768, bus offset = 1, interval = 125628, bus width = 23</text>
<rect x="388" y="50" width="2" height="56" style="fill:rgb(100,200,200);stroke-width:1;stroke:rgb(0,0,0);"/>
<text x="388" y="60" style="fill:black;font-family:sans-serif;font-size:10px;">27</text>
<rect x="10" y="376" width="10" height="10" style="fill:rgb(100,200,200);stroke-width:1;stroke:rgb(0,0,0);"/>
<text x="20" y="386" style="fill:black;font-family:sans-serif;font-size:10px;">core 27: start time = 376338, bus offset = 10, interval = 2778, bus width = 14</text>
<rect x="1004" y="18" width="64" height="88" style="fill:rgb(200,100,100);stroke-width:1;stroke:rgb(0,0,0);"/>
<text x="1004" y="28" style="fill:black;font-family:sans-serif;font-size:10px;">28</text>
<rect x="10" y="386" width="10" height="10" style="fill:rgb(200,100,100);stroke-width:1;stroke:rgb(0,0,0);"/>
<text x="20" y="396" style="fill:black;font-family:sans-serif;font-size:10px;">core 28: start time = 988428, bus offset = 2, interval = 64528, bus width = 22</text>
<rect x="237" y="102" width="8" height="4" style="fill:rgb(200,200,100);stroke-width:1;stroke:rgb(0,0,0);"/>
<text x="237" y="112" style="fill:black;font-family:sans-serif;font-size:10px;">29</text>
<rect x="10" y="396" width="10" height="10" style="fill:rgb(200,200,100);stroke-width:1;stroke:rgb(0,0,0);"/>
<text x="20" y="406" style="fill:black;font-family:sans-serif;font-size:10px;">core 29: start time = 225747, bus offset = 23, interval = 8482, bus width = 1</text>
<rect x="1208" y="10" width="1" height="88" style="fill:rgb(200,100,200);stroke-width:1;stroke:rgb(0,0,0);"/>
<text x="1208" y="20" style="fill:black;font-family:sans-serif;font-size:10px;">30</text>
<rect x="10" y="406" width="10" height="10" style="fill:rgb(200,100,200);stroke-width:1;stroke:rgb(0,0,0);"/>
<text x="20" y="416" style="fill:black;font-family:sans-serif;font-size:10px;">core 30: start time = 1191293, bus offset = 0, interval = 1229, bus width = 22</text>
<rect x="227" y="42" width="46" height="60" style="fill:rgb(200,200,200);stroke-width:1;stroke:rgb(0,0,0);"/>
<text x="227" y="52" style="fill:black;font-family:sans-serif;font-size:10px;">31</text>
<rect x="10" y="416" width="10" height="10" style="fill:rgb(200,200,200);stroke-width:1;stroke:rgb(0,0,0);"/>
<text x="20" y="426" style="fill:black;font-family:sans-serif;font-size:10px;">core 31: start time = 216005, bus offset = 8, interval = 46273, bus width = 15</text>
<text x="10" y="436" style="fill:black;font-family:sans-serif;font-size:10px;">Overall interval = 1192877, bus width = 24</text>
</svg>
