<?xml version="1.0" encoding="utf-8"?>
<!DOCTYPE svg PUBLIC "-//W3C//DTD SVG 1.0//EN" "http://www.w3.org/TR/2001/REC-SVG-20010904/DTD/svg10.dtd">
<svg xmlns="http://www.w3.org/2000/svg" version="1.0" width="1220" height="574">
<rect x="10" y="10" width="1200" height="224" style="fill:rgb(255,255,255);stroke-width:1;stroke:rgb(0,0,0);"/>
<rect x="10" y="142" width="287" height="92" style="fill:rgb(100,100,100);stroke-width:1;stroke:rgb(0,0,0);"/>
<text x="10" y="152" style="fill:black;font-family:sans-serif;font-size:10px;">0</text>
<rect x="10" y="234" width="10" height="10" style="fill:rgb(100,100,100);stroke-width:1;stroke:rgb(0,0,0);"/>
<text x="20" y="244" style="fill:black;font-family:sans-serif;font-size:10px;">core 0: start time = 0, bus offset = 33, interval = 127099, bus width = 23</text>
<rect x="408" y="94" width="17" height="4" style="fill:rgb(100,200,100);stroke-width:1;stroke:rgb(0,0,0);"/>
<text x="408" y="104" style="fill:black;font-family:sans-serif;font-size:10px;">1</text>
<rect x="10" y="244" width="10" height="10" style="fill:rgb(100,200,100);stroke-width:1;stroke:rgb(0,0,0);"/>
<text x="20" y="254" style="fill:black;font-family:sans-serif;font-size:10px;">core 1: start time = 176381, bus offset = 21, interval = 7906, bus width = 1</text>
<rect x="365" y="142" width="60" height="4" style="fill:rgb(100,100,200);stroke-width:1;stroke:rgb(0,0,0);"/>
<text x="365" y="152" style="fill:black;font-family:sans-serif;font-size:10px;">2</text>
<rect x="10" y="254" width="10" height="10" style="fill:rgb(100,100,200);stroke-width:1;stroke:rgb(0,0,0);"/>
<text x="20" y="264" style="fill:black;font-family:sans-serif;font-size:10px;">core 2: start time = 157565, bus offset = 33, interval = 26597, bus width = 1</text>
<rect x="818" y="66" width="0" height="168" style="fill:rgb(100,200,200);stroke-width:1;stroke:rgb(0,0,0);"/>
<text x="818" y="76" style="fill:black;font-family:sans-serif;font-size:10px;">3</text>
<rect x="10" y="264" width="10" height="10" style="fill:rgb(100,200,200);stroke-width:1;stroke:rgb(0,0,0);"/>
<text x="20" y="274" style="fill:black;font-family:sans-serif;font-size:10px;">core 3: start time = 357929, bus offset = 14, interval = 71, bus width = 42</text>
<rect x="297" y="146" width="138" height="76" style="fill:rgb(200,100,100);stroke-width:1;stroke:rgb(0,0,0);"/>
<text x="297" y="156" style="fill:black;font-family:sans-serif;font-size:10px;">4</text>
<rect x="10" y="274" width="10" height="10" style="fill:rgb(200,100,100);stroke-width:1;stroke:rgb(0,0,0);"/>
<text x="20" y="284" style="fill:black;font-family:sans-serif;font-size:10px;">core 4: start time = 127099, bus offset = 34, interval = 61278, bus width = 19</text>
<rect x="820" y="46" width="258" height="188" style="fill:rgb(200,200,100);stroke-width:1;stroke:rgb(0,0,0);"/>
<text x="820" y="56" style="fill:black;font-family:sans-serif;font-size:10px;">5</text>
<rect x="10" y="284" width="10" height="10" style="fill:rgb(200,200,100);stroke-width:1;stroke:rgb(0,0,0);"/>
<text x="20" y="294" style="fill:black;font-family:sans-serif;font-size:10px;">core 5: start time = 358682, bus offset = 9, interval = 114317, bus width = 47</text>
<rect x="810" y="50" width="0" height="84" style="fill:rgb(200,100,200);stroke-width:1;stroke:rgb(0,0,0);"/>
<text x="810" y="60" style="fill:black;font-family:sans-serif;font-size:10px;">6</text>
<rect x="10" y="294" width="10" height="10" style="fill:rgb(200,100,200);stroke-width:1;stroke:rgb(0,0,0);"/>
<text x="20" y="304" style="fill:black;font-family:sans-serif;font-size:10px;">core 6: start time = 354135, bus offset = 10, interval = 355, bus width = 21</text>
<rect x="809" y="54" width="0" height="84" style="fill:rgb(200,200,200);stroke-width:1;stroke:rgb(0,0,0);"/>
<text x="809" y="64" style="fill:black;font-family:sans-serif;font-size:10px;">7</text>
<rect x="10" y="304" width="10" height="10" style="fill:rgb(200,200,200);stroke-width:1;stroke:rgb(0,0,0);"/>
<text x="20" y="314" style="fill:black;font-family:sans-serif;font-size:10px;">core 7: start time = 353780, bus offset = 11, interval = 355, bus width = 21</text>
<rect x="443" y="50" width="1" height="80" style="fill:rgb(100,100,100);stroke-width:1;stroke:rgb(0,0,0);"/>
<text x="443" y="60" style="fill:black;font-family:sans-serif;font-size:10px;">8</text>
<rect x="10" y="314" width="10" height="10" style="fill:rgb(100,100,100);stroke-width:1;stroke:rgb(0,0,0);"/>
<text x="20" y="324" style="fill:black;font-family:sans-serif;font-size:10px;">core 8: start time = 191984, bus offset = 10, interval = 578, bus width = 20</text>
<rect x="297" y="222" width="178" height="12" style="fill:rgb(100,200,100);stroke-width:1;stroke:rgb(0,0,0);"/>
<text x="297" y="232" style="fill:black;font-family:sans-serif;font-size:10px;">9</text>
<rect x="10" y="324" width="10" height="10" style="fill:rgb(100,200,100);stroke-width:1;stroke:rgb(0,0,0);"/>
<text x="20" y="334" style="fill:black;font-family:sans-serif;font-size:10px;">core 9: start time = 127099, bus offset = 53, interval = 79216, bus width = 3</text>
<rect x="408" y="50" width="35" height="40" style="fill:rgb(100,100,200);stroke-width:1;stroke:rgb(0,0,0);"/>
<text x="408" y="60" style="fill:black;font-family:sans-serif;font-size:10px;">10</text>
<rect x="10" y="334" width="10" height="10" style="fill:rgb(100,100,200);stroke-width:1;stroke:rgb(0,0,0);"/>
<text x="20" y="344" style="fill:black;font-family:sans-serif;font-size:10px;">core 10: start time = 176381, bus offset = 10, interval = 15603, bus width = 10</text>
<rect x="1078" y="34" width="83" height="200" style="fill:rgb(100,200,200);stroke-width:1;stroke:rgb(0,0,0);"/>
<text x="1078" y="44" style="fill:black;font-family:sans-serif;font-size:10px;">11</text>
<rect x="10" y="344" width="10" height="10" style="fill:rgb(100,200,200);stroke-width:1;stroke:rgb(0,0,0);"/>
<text x="20" y="354" style="fill:black;font-family:sans-serif;font-size:10px;">core 11: start time = 472999, bus offset = 6, interval = 36847, bus width = 50</text>
<rect x="521" y="50" width="96" height="184" style="fill:rgb(200,100,100);stroke-width:1;stroke:rgb(0,0,0);"/>
<text x="521" y="60" style="fill:black;font-family:sans-serif;font-size:10px;">12</text>
<rect x="10" y="354" width="10" height="10" style="fill:rgb(200,100,100);stroke-width:1;stroke:rgb(0,0,0);"/>
<text x="20" y="364" style="fill:black;font-family:sans-serif;font-size:10px;">core 12: start time = 226623, bus offset = 10, interval = 42899, bus width = 46</text>
<rect x="618" y="50" width="96" height="184" style="fill:rgb(200,200,100);stroke-width:1;stroke:rgb(0,0,0);"/>
<text x="618" y="60" style="fill:black;font-family:sans-serif;font-size:10px;">13</text>
<rect x="10" y="364" width="10" height="10" style="fill:rgb(200,200,100);stroke-width:1;stroke:rgb(0,0,0);"/>
<text x="20" y="374" style="fill:black;font-family:sans-serif;font-size:10px;">core 13: start time = 269522, bus offset = 10, interval = 42899, bus width = 46</text>
<rect x="408" y="90" width="29" height="4" style="fill:rgb(200,100,200);stroke-width:1;stroke:rgb(0,0,0);"/>
<text x="408" y="100" style="fill:black;font-family:sans-serif;font-size:10px;">14</text>
<rect x="10" y="374" width="10" height="10" style="fill:rgb(200,100,200);stroke-width:1;stroke:rgb(0,0,0);"/>
<text x="20" y="384" style="fill:black;font-family:sans-serif;font-size:10px;">core 14: start time = 176381, bus offset = 20, interval = 12994, bus width = 1</text>
<rect x="809" y="138" width="5" height="96" style="fill:rgb(200,200,200);stroke-width:1;stroke:rgb(0,0,0);"/>
<text x="809" y="148" style="fill:black;font-family:sans-serif;font-size:10px;">15</text>
<rect x="10" y="384" width="10" height="10" style="fill:rgb(200,200,200);stroke-width:1;stroke:rgb(0,0,0);"/>
<text x="20" y="394" style="fill:black;font-family:sans-serif;font-size:10px;">core 15: start time = 353780, bus offset = 32, interval = 2381, bus width = 24</text>
<rect x="10" y="34" width="810" height="16" style="fill:rgb(100,100,100);stroke-width:1;stroke:rgb(0,0,0);"/>
<text x="10" y="44" style="fill:black;font-family:sans-serif;font-size:10px;">16</text>
<rect x="10" y="394" width="10" height="10" style="fill:rgb(100,100,100);stroke-width:1;stroke:rgb(0,0,0);"/>
<text x="20" y="404" style="fill:black;font-family:sans-serif;font-size:10px;">core 16: start time = 0, bus offset = 6, interval = 358682, bus width = 4</text>
<rect x="422" y="98" width="7" height="4" style="fill:rgb(100,200,100);stroke-width:1;stroke:rgb(0,0,0);"/>
<text x="422" y="108" style="fill:black;font-family:sans-serif;font-size:10px;">17</text>
<rect x="10" y="404" width="10" height="10" style="fill:rgb(100,200,100);stroke-width:1;stroke:rgb(0,0,0);"/>
<text x="20" y="414" style="fill:black;font-family:sans-serif;font-size:10px;">core 17: start time = 182526, bus offset = 22, interval = 3394, bus width = 1</text>
<rect x="1161" y="10" width="48" height="196" style="fill:rgb(100,100,200);stroke-width:1;stroke:rgb(0,0,0);"/>
<text x="1161" y="20" style="fill:black;font-family:sans-serif;font-size:10px;">18</text>
<rect x="10" y="414" width="10" height="10" style="fill:rgb(100,100,200);stroke-width:1;stroke:rgb(0,0,0);"/>
<text x="20" y="424" style="fill:black;font-family:sans-serif;font-size:10px;">core 18: start time = 509846, bus offset = 0, interval = 21310, bus width = 49</text>
<rect x="10" y="50" width="328" height="92" style="fill:rgb(100,200,200);stroke-width:1;stroke:rgb(0,0,0);"/>
<text x="10" y="60" style="fill:black;font-family:sans-serif;font-size:10px;">19</text>
<rect x="10" y="424" width="10" height="10" style="fill:rgb(100,200,200);stroke-width:1;stroke:rgb(0,0,0);"/>
<text x="20" y="434" style="fill:black;font-family:sans-serif;font-size:10px;">core 19: start time = 0, bus offset = 10, interval = 145532, bus width = 23</text>
<rect x="422" y="106" width="2" height="12" style="fill:rgb(200,100,100);stroke-width:1;stroke:rgb(0,0,0);"/>
<text x="422" y="116" style="fill:black;font-family:sans-serif;font-size:10px;">20</text>
<rect x="10" y="434" width="10" height="10" style="fill:rgb(200,100,100);stroke-width:1;stroke:rgb(0,0,0);"/>
<text x="20" y="444" style="fill:black;font-family:sans-serif;font-size:10px;">core 20: start time = 182526, bus offset = 24, interval = 899, bus width = 3</text>
<rect x="422" y="102" width="4" height="4" style="fill:rgb(200,200,100);stroke-width:1;stroke:rgb(0,0,0);"/>
<text x="422" y="112" style="fill:black;font-family:sans-serif;font-size:10px;">21</text>
<rect x="10" y="444" width="10" height="10" style="fill:rgb(200,200,100);stroke-width:1;stroke:rgb(0,0,0);"/>
<text x="20" y="454" style="fill:black;font-family:sans-serif;font-size:10px;">core 21: start time = 182526, bus offset = 23, interval = 1840, bus width = 1</text>
<rect x="715" y="54" width="93" height="180" style="fill:rgb(200,100,200);stroke-width:1;stroke:rgb(0,0,0);"/>
<text x="715" y="64" style="fill:black;font-family:sans-serif;font-size:10px;">22</text>
<rect x="10" y="454" width="10" height="10" style="fill:rgb(200,100,200);stroke-width:1;stroke:rgb(0,0,0);"/>
<text x="20" y="464" style="fill:black;font-family:sans-serif;font-size:10px;">core 22: start time = 312421, bus offset = 11, interval = 41359, bus width = 45</text>
<rect x="408" y="98" width="13" height="44" style="fill:rgb(200,200,200);stroke-width:1;stroke:rgb(0,0,0);"/>
<text x="408" y="108" style="fill:black;font-family:sans-serif;font-size:10px;">23</text>
<rect x="10" y="464" width="10" height="10" style="fill:rgb(200,200,200);stroke-width:1;stroke:rgb(0,0,0);"/>
<text x="20" y="474" style="fill:black;font-family:sans-serif;font-size:10px;">core 23: start time = 176381, bus offset = 22, interval = 6145, bus width = 11</text>
<rect x="435" y="130" width="12" height="92" style="fill:rgb(100,100,100);stroke-width:1;stroke:rgb(0,0,0);"/>
<text x="435" y="140" style="fill:black;font-family:sans-serif;font-size:10px;">24</text>
<rect x="10" y="474" width="10" height="10" style="fill:rgb(100,100,100);stroke-width:1;stroke:rgb(0,0,0);"/>
<text x="20" y="484" style="fill:black;font-family:sans-serif;font-size:10px;">core 24: start time = 188377, bus offset = 30, interval = 5377, bus width = 23</text>
<rect x="818" y="82" width="0" height="152" style="fill:rgb(100,200,100);stroke-width:1;stroke:rgb(0,0,0);"/>
<text x="818" y="92" style="fill:black;font-family:sans-serif;font-size:10px;">25</text>
<rect x="10" y="484" width="10" height="10" style="fill:rgb(100,200,100);stroke-width:1;stroke:rgb(0,0,0);"/>
<text x="20" y="494" style="fill:black;font-family:sans-serif;font-size:10px;">core 25: start time = 357736, bus offset = 18, interval = 193, bus width = 38</text>
<rect x="10" y="10" width="1085" height="24" style="fill:rgb(100,100,200);stroke-width:1;stroke:rgb(0,0,0);"/>
<text x="10" y="20" style="fill:black;font-family:sans-serif;font-size:10px;">26</text>
<rect x="10" y="494" width="10" height="10" style="fill:rgb(100,100,200);stroke-width:1;stroke:rgb(0,0,0);"/>
<text x="20" y="504" style="fill:black;font-family:sans-serif;font-size:10px;">core 26: start time = 0, bus offset = 0, interval = 480507, bus width = 6</text>
<rect x="814" y="74" width="2" height="160" style="fill:rgb(100,200,200);stroke-width:1;stroke:rgb(0,0,0);"/>
<text x="814" y="84" style="fill:black;font-family:sans-serif;font-size:10px;">27</text>
<rect x="10" y="504" width="10" height="10" style="fill:rgb(100,200,200);stroke-width:1;stroke:rgb(0,0,0);"/>
<text x="20" y="514" style="fill:black;font-family:sans-serif;font-size:10px;">core 27: start time = 356161, bus offset = 16, interval = 1190, bus width = 40</text>
<rect x="447" y="50" width="74" height="144" style="fill:rgb(200,100,100);stroke-width:1;stroke:rgb(0,0,0);"/>
<text x="447" y="60" style="fill:black;font-family:sans-serif;font-size:10px;">28</text>
<rect x="10" y="514" width="10" height="10" style="fill:rgb(200,100,100);stroke-width:1;stroke:rgb(0,0,0);"/>
<text x="20" y="524" style="fill:black;font-family:sans-serif;font-size:10px;">core 28: start time = 193754, bus offset = 10, interval = 32869, bus width = 36</text>
<rect x="817" y="78" width="0" height="156" style="fill:rgb(200,200,100);stroke-width:1;stroke:rgb(0,0,0);"/>
<text x="817" y="88" style="fill:black;font-family:sans-serif;font-size:10px;">29</text>
<rect x="10" y="524" width="10" height="10" style="fill:rgb(200,200,100);stroke-width:1;stroke:rgb(0,0,0);"/>
<text x="20" y="534" style="fill:black;font-family:sans-serif;font-size:10px;">core 29: start time = 357351, bus offset = 17, interval = 385, bus width = 39</text>
<rect x="297" y="142" width="68" height="4" style="fill:rgb(200,100,200);stroke-width:1;stroke:rgb(0,0,0);"/>
<text x="297" y="152" style="fill:black;font-family:sans-serif;font-size:10px;">30</text>
<rect x="10" y="534" width="10" height="10" style="fill:rgb(200,100,200);stroke-width:1;stroke:rgb(0,0,0);"/>
<text x="20" y="544" style="fill:black;font-family:sans-serif;font-size:10px;">core 30: start time = 127099, bus offset = 33, interval = 30466, bus width = 1</text>
<rect x="338" y="50" width="69" height="92" style="fill:rgb(200,200,200);stroke-width:1;stroke:rgb(0,0,0);"/>
<text x="338" y="60" style="fill:black;font-family:sans-serif;font-size:10px;">31</text>
<rect x="10" y="544" width="10" height="10" style="fill:rgb(200,200,200);stroke-width:1;stroke:rgb(0,0,0);"/>
<text x="20" y="554" style="fill:black;font-family:sans-serif;font-size:10px;">core 31: start time = 145532, bus offset = 10, interval = 30849, bus width = 23</text>
<text x="10" y="564" style="fill:black;font-family:sans-serif;font-size:10px;">Overall interval = 531156, bus width = 56</text>
</svg>
