<?xml version="1.0" encoding="utf-8"?>
<!DOCTYPE svg PUBLIC "-//W3C//DTD SVG 1.0//EN" "http://www.w3.org/TR/2001/REC-SVG-20010904/DTD/svg10.dtd">
<svg xmlns="http://www.w3.org/2000/svg" version="1.0" width="1220" height="606">
<rect x="10" y="10" width="1200" height="256" style="fill:rgb(255,255,255);stroke-width:1;stroke:rgb(0,0,0);"/>
<rect x="511" y="82" width="182" height="176" style="fill:rgb(100,100,100);stroke-width:1;stroke:rgb(0,0,0);"/>
<text x="511" y="92" style="fill:black;font-family:sans-serif;font-size:10px;">0</text>
<rect x="10" y="266" width="10" height="10" style="fill:rgb(100,100,100);stroke-width:1;stroke:rgb(0,0,0);"/>
<text x="20" y="276" style="fill:black;font-family:sans-serif;font-size:10px;">core 0: start time = 190210, bus offset = 18, interval = 69289, bus width = 44</text>
<rect x="1000" y="70" width="7" height="12" style="fill:rgb(100,200,100);stroke-width:1;stroke:rgb(0,0,0);"/>
<text x="1000" y="80" style="fill:black;font-family:sans-serif;font-size:10px;">1</text>
<rect x="10" y="276" width="10" height="10" style="fill:rgb(100,200,100);stroke-width:1;stroke:rgb(0,0,0);"/>
<text x="20" y="286" style="fill:black;font-family:sans-serif;font-size:10px;">core 1: start time = 375999, bus offset = 15, interval = 2892, bus width = 3</text>
<rect x="311" y="78" width="70" height="4" style="fill:rgb(100,100,200);stroke-width:1;stroke:rgb(0,0,0);"/>
<text x="311" y="88" style="fill:black;font-family:sans-serif;font-size:10px;">2</text>
<rect x="10" y="286" width="10" height="10" style="fill:rgb(100,100,200);stroke-width:1;stroke:rgb(0,0,0);"/>
<text x="20" y="296" style="fill:black;font-family:sans-serif;font-size:10px;">core 2: start time = 114317, bus offset = 17, interval = 26597, bus width = 1</text>
<rect x="1047" y="146" width="0" height="96" style="fill:rgb(100,200,200);stroke-width:1;stroke:rgb(0,0,0);"/>
<text x="1047" y="156" style="fill:black;font-family:sans-serif;font-size:10px;">3</text>
<rect x="10" y="296" width="10" height="10" style="fill:rgb(100,200,200);stroke-width:1;stroke:rgb(0,0,0);"/>
<text x="20" y="306" style="fill:black;font-family:sans-serif;font-size:10px;">core 3: start time = 393928, bus offset = 34, interval = 130, bus width = 24</text>
<rect x="1145" y="54" width="64" height="212" style="fill:rgb(200,100,100);stroke-width:1;stroke:rgb(0,0,0);"/>
<text x="1145" y="64" style="fill:black;font-family:sans-serif;font-size:10px;">4</text>
<rect x="10" y="306" width="10" height="10" style="fill:rgb(200,100,100);stroke-width:1;stroke:rgb(0,0,0);"/>
<text x="20" y="316" style="fill:black;font-family:sans-serif;font-size:10px;">core 4: start time = 431007, bus offset = 11, interval = 24511, bus width = 53</text>
<rect x="10" y="78" width="301" height="188" style="fill:rgb(200,200,100);stroke-width:1;stroke:rgb(0,0,0);"/>
<text x="10" y="88" style="fill:black;font-family:sans-serif;font-size:10px;">5</text>
<rect x="10" y="316" width="10" height="10" style="fill:rgb(200,200,100);stroke-width:1;stroke:rgb(0,0,0);"/>
<text x="20" y="326" style="fill:black;font-family:sans-serif;font-size:10px;">core 5: start time = 0, bus offset = 17, interval = 114317, bus width = 47</text>
<rect x="403" y="78" width="15" height="4" style="fill:rgb(200,100,200);stroke-width:1;stroke:rgb(0,0,0);"/>
<text x="403" y="88" style="fill:black;font-family:sans-serif;font-size:10px;">6</text>
<rect x="10" y="326" width="10" height="10" style="fill:rgb(200,100,200);stroke-width:1;stroke:rgb(0,0,0);"/>
<text x="20" y="336" style="fill:black;font-family:sans-serif;font-size:10px;">core 6: start time = 149396, bus offset = 17, interval = 5850, bus width = 1</text>
<rect x="1036" y="62" width="0" height="84" style="fill:rgb(200,200,200);stroke-width:1;stroke:rgb(0,0,0);"/>
<text x="1036" y="72" style="fill:black;font-family:sans-serif;font-size:10px;">7</text>
<rect x="10" y="336" width="10" height="10" style="fill:rgb(200,200,200);stroke-width:1;stroke:rgb(0,0,0);"/>
<text x="20" y="346" style="fill:black;font-family:sans-serif;font-size:10px;">core 7: start time = 389720, bus offset = 13, interval = 355, bus width = 21</text>
<rect x="1028" y="70" width="1" height="80" style="fill:rgb(100,100,100);stroke-width:1;stroke:rgb(0,0,0);"/>
<text x="1028" y="80" style="fill:black;font-family:sans-serif;font-size:10px;">8</text>
<rect x="10" y="346" width="10" height="10" style="fill:rgb(100,100,100);stroke-width:1;stroke:rgb(0,0,0);"/>
<text x="20" y="356" style="fill:black;font-family:sans-serif;font-size:10px;">core 8: start time = 386656, bus offset = 15, interval = 578, bus width = 20</text>
<rect x="1028" y="242" width="107" height="24" style="fill:rgb(100,200,100);stroke-width:1;stroke:rgb(0,0,0);"/>
<text x="1028" y="252" style="fill:black;font-family:sans-serif;font-size:10px;">9</text>
<rect x="10" y="356" width="10" height="10" style="fill:rgb(100,200,100);stroke-width:1;stroke:rgb(0,0,0);"/>
<text x="20" y="366" style="fill:black;font-family:sans-serif;font-size:10px;">core 9: start time = 386656, bus offset = 58, interval = 40772, bus width = 6</text>
<rect x="311" y="262" width="393" height="4" style="fill:rgb(100,100,200);stroke-width:1;stroke:rgb(0,0,0);"/>
<text x="311" y="272" style="fill:black;font-family:sans-serif;font-size:10px;">10</text>
<rect x="10" y="366" width="10" height="10" style="fill:rgb(100,100,200);stroke-width:1;stroke:rgb(0,0,0);"/>
<text x="20" y="376" style="fill:black;font-family:sans-serif;font-size:10px;">core 10: start time = 114317, bus offset = 63, interval = 149381, bus width = 1</text>
<rect x="1048" y="42" width="97" height="200" style="fill:rgb(100,200,200);stroke-width:1;stroke:rgb(0,0,0);"/>
<text x="1048" y="52" style="fill:black;font-family:sans-serif;font-size:10px;">11</text>
<rect x="10" y="376" width="10" height="10" style="fill:rgb(100,200,200);stroke-width:1;stroke:rgb(0,0,0);"/>
<text x="20" y="386" style="fill:black;font-family:sans-serif;font-size:10px;">core 11: start time = 394160, bus offset = 8, interval = 36847, bus width = 50</text>
<rect x="802" y="82" width="113" height="184" style="fill:rgb(200,100,100);stroke-width:1;stroke:rgb(0,0,0);"/>
<text x="802" y="92" style="fill:black;font-family:sans-serif;font-size:10px;">12</text>
<rect x="10" y="386" width="10" height="10" style="fill:rgb(200,100,100);stroke-width:1;stroke:rgb(0,0,0);"/>
<text x="20" y="396" style="fill:black;font-family:sans-serif;font-size:10px;">core 12: start time = 300858, bus offset = 18, interval = 42899, bus width = 46</text>
<rect x="915" y="82" width="113" height="184" style="fill:rgb(200,200,100);stroke-width:1;stroke:rgb(0,0,0);"/>
<text x="915" y="92" style="fill:black;font-family:sans-serif;font-size:10px;">13</text>
<rect x="10" y="396" width="10" height="10" style="fill:rgb(200,200,100);stroke-width:1;stroke:rgb(0,0,0);"/>
<text x="20" y="406" style="fill:black;font-family:sans-serif;font-size:10px;">core 13: start time = 343757, bus offset = 18, interval = 42899, bus width = 46</text>
<rect x="1045" y="86" width="1" height="156" style="fill:rgb(200,100,200);stroke-width:1;stroke:rgb(0,0,0);"/>
<text x="1045" y="96" style="fill:black;font-family:sans-serif;font-size:10px;">14</text>
<rect x="10" y="406" width="10" height="10" style="fill:rgb(200,100,200);stroke-width:1;stroke:rgb(0,0,0);"/>
<text x="20" y="416" style="fill:black;font-family:sans-serif;font-size:10px;">core 14: start time = 393223, bus offset = 19, interval = 577, bus width = 39</text>
<rect x="311" y="82" width="144" height="4" style="fill:rgb(200,200,200);stroke-width:1;stroke:rgb(0,0,0);"/>
<text x="311" y="92" style="fill:black;font-family:sans-serif;font-size:10px;">15</text>
<rect x="10" y="416" width="10" height="10" style="fill:rgb(200,200,200);stroke-width:1;stroke:rgb(0,0,0);"/>
<text x="20" y="426" style="fill:black;font-family:sans-serif;font-size:10px;">core 15: start time = 114317, bus offset = 18, interval = 54712, bus width = 1</text>
<rect x="10" y="42" width="425" height="36" style="fill:rgb(100,100,100);stroke-width:1;stroke:rgb(0,0,0);"/>
<text x="10" y="52" style="fill:black;font-family:sans-serif;font-size:10px;">16</text>
<rect x="10" y="426" width="10" height="10" style="fill:rgb(100,100,100);stroke-width:1;stroke:rgb(0,0,0);"/>
<text x="20" y="436" style="fill:black;font-family:sans-serif;font-size:10px;">core 16: start time = 0, bus offset = 8, interval = 161664, bus width = 9</text>
<rect x="1030" y="134" width="1" height="16" style="fill:rgb(100,200,100);stroke-width:1;stroke:rgb(0,0,0);"/>
<text x="1030" y="144" style="fill:black;font-family:sans-serif;font-size:10px;">17</text>
<rect x="10" y="436" width="10" height="10" style="fill:rgb(100,200,100);stroke-width:1;stroke:rgb(0,0,0);"/>
<text x="20" y="446" style="fill:black;font-family:sans-serif;font-size:10px;">core 17: start time = 387234, bus offset = 31, interval = 726, bus width = 4</text>
<rect x="435" y="62" width="544" height="20" style="fill:rgb(100,100,200);stroke-width:1;stroke:rgb(0,0,0);"/>
<text x="435" y="72" style="fill:black;font-family:sans-serif;font-size:10px;">18</text>
<rect x="10" y="446" width="10" height="10" style="fill:rgb(100,100,200);stroke-width:1;stroke:rgb(0,0,0);"/>
<text x="20" y="456" style="fill:black;font-family:sans-serif;font-size:10px;">core 18: start time = 161664, bus offset = 13, interval = 206548, bus width = 5</text>
<rect x="311" y="86" width="199" height="176" style="fill:rgb(100,200,200);stroke-width:1;stroke:rgb(0,0,0);"/>
<text x="311" y="96" style="fill:black;font-family:sans-serif;font-size:10px;">19</text>
<rect x="10" y="456" width="10" height="10" style="fill:rgb(100,200,200);stroke-width:1;stroke:rgb(0,0,0);"/>
<text x="20" y="466" style="fill:black;font-family:sans-serif;font-size:10px;">core 19: start time = 114317, bus offset = 19, interval = 75893, bus width = 44</text>
<rect x="418" y="78" width="8" height="4" style="fill:rgb(200,100,100);stroke-width:1;stroke:rgb(0,0,0);"/>
<text x="418" y="88" style="fill:black;font-family:sans-serif;font-size:10px;">20</text>
<rect x="10" y="466" width="10" height="10" style="fill:rgb(200,100,100);stroke-width:1;stroke:rgb(0,0,0);"/>
<text x="20" y="476" style="fill:black;font-family:sans-serif;font-size:10px;">core 20: start time = 155246, bus offset = 17, interval = 3394, bus width = 1</text>
<rect x="1047" y="94" width="0" height="148" style="fill:rgb(200,200,100);stroke-width:1;stroke:rgb(0,0,0);"/>
<text x="1047" y="104" style="fill:black;font-family:sans-serif;font-size:10px;">21</text>
<rect x="10" y="476" width="10" height="10" style="fill:rgb(200,200,100);stroke-width:1;stroke:rgb(0,0,0);"/>
<text x="20" y="486" style="fill:black;font-family:sans-serif;font-size:10px;">core 21: start time = 393800, bus offset = 21, interval = 128, bus width = 37</text>
<rect x="693" y="82" width="108" height="180" style="fill:rgb(200,100,200);stroke-width:1;stroke:rgb(0,0,0);"/>
<text x="693" y="92" style="fill:black;font-family:sans-serif;font-size:10px;">22</text>
<rect x="10" y="486" width="10" height="10" style="fill:rgb(200,100,200);stroke-width:1;stroke:rgb(0,0,0);"/>
<text x="20" y="496" style="fill:black;font-family:sans-serif;font-size:10px;">core 22: start time = 259499, bus offset = 18, interval = 41359, bus width = 45</text>
<rect x="980" y="62" width="56" height="8" style="fill:rgb(200,200,200);stroke-width:1;stroke:rgb(0,0,0);"/>
<text x="980" y="72" style="fill:black;font-family:sans-serif;font-size:10px;">23</text>
<rect x="10" y="496" width="10" height="10" style="fill:rgb(200,200,200);stroke-width:1;stroke:rgb(0,0,0);"/>
<text x="20" y="506" style="fill:black;font-family:sans-serif;font-size:10px;">core 23: start time = 368212, bus offset = 13, interval = 21508, bus width = 2</text>
<rect x="1028" y="150" width="14" height="92" style="fill:rgb(100,100,100);stroke-width:1;stroke:rgb(0,0,0);"/>
<text x="1028" y="160" style="fill:black;font-family:sans-serif;font-size:10px;">24</text>
<rect x="10" y="506" width="10" height="10" style="fill:rgb(100,100,100);stroke-width:1;stroke:rgb(0,0,0);"/>
<text x="20" y="516" style="fill:black;font-family:sans-serif;font-size:10px;">core 24: start time = 386656, bus offset = 35, interval = 5377, bus width = 23</text>
<rect x="1030" y="98" width="1" height="36" style="fill:rgb(100,200,100);stroke-width:1;stroke:rgb(0,0,0);"/>
<text x="1030" y="108" style="fill:black;font-family:sans-serif;font-size:10px;">25</text>
<rect x="10" y="516" width="10" height="10" style="fill:rgb(100,200,100);stroke-width:1;stroke:rgb(0,0,0);"/>
<text x="20" y="526" style="fill:black;font-family:sans-serif;font-size:10px;">core 25: start time = 387234, bus offset = 22, interval = 580, bus width = 9</text>
<rect x="10" y="10" width="963" height="32" style="fill:rgb(100,100,200);stroke-width:1;stroke:rgb(0,0,0);"/>
<text x="10" y="20" style="fill:black;font-family:sans-serif;font-size:10px;">26</text>
<rect x="10" y="526" width="10" height="10" style="fill:rgb(100,100,200);stroke-width:1;stroke:rgb(0,0,0);"/>
<text x="20" y="536" style="fill:black;font-family:sans-serif;font-size:10px;">core 26: start time = 0, bus offset = 0, interval = 365882, bus width = 8</text>
<rect x="1042" y="82" width="3" height="160" style="fill:rgb(100,200,200);stroke-width:1;stroke:rgb(0,0,0);"/>
<text x="1042" y="92" style="fill:black;font-family:sans-serif;font-size:10px;">27</text>
<rect x="10" y="536" width="10" height="10" style="fill:rgb(100,200,200);stroke-width:1;stroke:rgb(0,0,0);"/>
<text x="20" y="546" style="fill:black;font-family:sans-serif;font-size:10px;">core 27: start time = 392033, bus offset = 18, interval = 1190, bus width = 40</text>
<rect x="435" y="42" width="612" height="20" style="fill:rgb(200,100,100);stroke-width:1;stroke:rgb(0,0,0);"/>
<text x="435" y="52" style="fill:black;font-family:sans-serif;font-size:10px;">28</text>
<rect x="10" y="546" width="10" height="10" style="fill:rgb(200,100,100);stroke-width:1;stroke:rgb(0,0,0);"/>
<text x="20" y="556" style="fill:black;font-family:sans-serif;font-size:10px;">core 28: start time = 161664, bus offset = 8, interval = 232496, bus width = 5</text>
<rect x="381" y="78" width="22" height="4" style="fill:rgb(200,200,100);stroke-width:1;stroke:rgb(0,0,0);"/>
<text x="381" y="88" style="fill:black;font-family:sans-serif;font-size:10px;">29</text>
<rect x="10" y="556" width="10" height="10" style="fill:rgb(200,200,100);stroke-width:1;stroke:rgb(0,0,0);"/>
<text x="20" y="566" style="fill:black;font-family:sans-serif;font-size:10px;">core 29: start time = 140914, bus offset = 17, interval = 8482, bus width = 1</text>
<rect x="980" y="70" width="20" height="12" style="fill:rgb(200,100,200);stroke-width:1;stroke:rgb(0,0,0);"/>
<text x="980" y="80" style="fill:black;font-family:sans-serif;font-size:10px;">30</text>
<rect x="10" y="566" width="10" height="10" style="fill:rgb(200,100,200);stroke-width:1;stroke:rgb(0,0,0);"/>
<text x="20" y="576" style="fill:black;font-family:sans-serif;font-size:10px;">core 30: start time = 368212, bus offset = 15, interval = 7787, bus width = 3</text>
<rect x="973" y="10" width="219" height="32" style="fill:rgb(200,200,200);stroke-width:1;stroke:rgb(0,0,0);"/>
<text x="973" y="20" style="fill:black;font-family:sans-serif;font-size:10px;">31</text>
<rect x="10" y="576" width="10" height="10" style="fill:rgb(200,200,200);stroke-width:1;stroke:rgb(0,0,0);"/>
<text x="20" y="586" style="fill:black;font-family:sans-serif;font-size:10px;">core 31: start time = 365882, bus offset = 0, interval = 83293, bus width = 8</text>
<text x="10" y="596" style="fill:black;font-family:sans-serif;font-size:10px;">Overall interval = 455518, bus width = 64</text>
</svg>
